<?xml version="1.0" encoding="UTF-8" standalone="no"?>
<!-- Created with Inkscape (http://www.inkscape.org/) -->

<svg
   version="1.1"
   width="726.83411"
   height="690.21222"
   viewBox="0 0 726.83411 690.21223"
   id="svg2"
   sodipodi:docname="yaw_pitch_roll.svg"
   inkscape:export-filename="../5c86b1d8/yaw_pitch_roll.png"
   inkscape:export-xdpi="46.227879"
   inkscape:export-ydpi="46.227879"
   inkscape:version="1.2.1 (2ed6d7ae0b, 2022-08-22, custom)"
   xmlns:inkscape="http://www.inkscape.org/namespaces/inkscape"
   xmlns:sodipodi="http://sodipodi.sourceforge.net/DTD/sodipodi-0.dtd"
   xmlns="http://www.w3.org/2000/svg"
   xmlns:svg="http://www.w3.org/2000/svg"
   xmlns:rdf="http://www.w3.org/1999/02/22-rdf-syntax-ns#"
   xmlns:cc="http://creativecommons.org/ns#"
   xmlns:dc="http://purl.org/dc/elements/1.1/">
  <sodipodi:namedview
     id="namedview250"
     pagecolor="#ffffff"
     bordercolor="#666666"
     borderopacity="1.0"
     inkscape:showpageshadow="2"
     inkscape:pageopacity="0.0"
     inkscape:pagecheckerboard="0"
     inkscape:deskcolor="#d1d1d1"
     showgrid="false"
     inkscape:zoom="1.1778986"
     inkscape:cx="363.35895"
     inkscape:cy="346.80405"
     inkscape:window-width="1874"
     inkscape:window-height="1016"
     inkscape:window-x="46"
     inkscape:window-y="27"
     inkscape:window-maximized="1"
     inkscape:current-layer="svg2" />
  <defs
     id="defs4" />
  <metadata
     id="metadata7">
    <rdf:RDF>
      <cc:Work
         rdf:about="">
        <dc:format>image/svg+xml</dc:format>
        <dc:type
           rdf:resource="http://purl.org/dc/dcmitype/StillImage" />
        <dc:title />
      </cc:Work>
    </rdf:RDF>
  </metadata>
  <rect
     style="fill:#ffffff;fill-opacity:1;stroke:none;stroke-width:3.26929;stroke-linecap:round;stop-color:#000000"
     id="rect456"
     width="726.83411"
     height="690.21222"
     x="0"
     y="0" />
  <g
     transform="translate(-9.5612591,-154.73792)"
     id="layer2"
     style="stroke:none;display:inline">
    <g
       transform="translate(1329.5232,846.52816)"
       id="g4608"
       style="stroke:none">
      <g
         transform="translate(-2143.1097,-170.49765)"
         id="g4380"
         style="stroke:none">
        <path
           d="m 1146.481,37.076347 c -13.2781,-4.0626 -43.6829,-21.9462 -59.9999,-35.2907995 -25.1603,-20.5768995 -49.1129,-49.0767005 -65.9379,-78.4552005 -4.9436,-8.6323 -7.2424,-11.75 -8.6638,-11.75 -3.075,-7.793533 -6.1499,-15.587067 -9.2249,-23.380597 -2.87506,-5.4664 -11.22946,-29.7237 -14.24786,-41.3694 l -2.9159,-11.25 -4.1478,0 c -2.6835,0 -4.3425,-0.50728 -4.6992,-1.43685 -0.3033,-0.79027 1.0376,-7.42777 2.9796,-14.75 3.9471,-14.8818 5.2674,-18.81315 6.318,-18.81315 1.1856,0 22.03976,25.77637 22.03976,27.2419 0,0.74598 -1.589,1.93091 -3.5311,2.63317 -3.3593,1.21473 -3.5016,1.45561 -2.9255,4.95089 0.8561,5.1946 3.0421,12.82714 7.6396,26.67404 34.4267,88.011536 98.5494,147.7288103 163.3169,165.412506 13.8151,3.7721 36.4214,6.090791 49.5,3.574991 15.1312,-2.9106 17.4184,-3.5449 25.8774,-7.1772 31.6873,-13.6064 51.9223,-35.630599 66.7185,-72.618 l 4.7234,-11.8078 -3.1165,-2.8465 c -6.0803,-5.5534 -5.6739,-6.7905 6.0899,-18.5401 5.7809,-5.7739 11.1927,-10.4979 12.0263,-10.4979 1.6629,0 2.9438,3.0163 8.0663,18.9944 1.8504,5.7719 3.1412,11.076 2.8684,11.7869 -0.7292,1.9002 -5.7188,4.2187 -9.079,4.2187 -2.4553,0 -3.0218,0.4857 -3.5299,3.0263 -1.1751,5.8754 -10.8308,27.844601 -16.2485,36.969501 -11.6299,19.5878995 -23.9062,32.967899 -40.3963,44.027999 -28.2324,18.936 -63.7573,26.3541 -96,20.0462 -11.1667,-3.191333 -22.3333,-6.382667 -33.5,-9.574 z"
           id="path3927-5"
           style="fill:#52dedf;stroke:none;display:inline" />
        <path
           d="m 1147.2929,38.466968 c -13.294,-5.046487 -43.683,-23.461429 -59.9999,-36.8060288 -18.0116,-14.7305002 -36.5713,-34.7537002 -50.7068,-54.7053002 -10.2732,-14.5 -22.1991,-35.0342 -21.2445,-36.5789 0.3807,-0.616 3.4486,-2.4235 6.8176,-4.0168 l 6.1254,-2.8969 0.6025,2.2528 c 0.3314,1.239 1.3457,3.69 2.2541,5.4466 2.2248,4.3023 2.0947,5.5301 -0.19,1.7932 -2.9792,-4.8727 -4.8122,-5.9787 -7.716,-4.6556 -1.3742,0.6261 -2.756,1.8093 -3.0707,2.6294 -1.3346,3.4779 16.2184,31.7883 30.6139,49.3756 26.717,32.6410002 57.5607,56.3374 90.7399,69.7135 12.0916,5.585339 24.1831,9.100609 36.2747,9.9259 13.7715,2.5352 36.5889,1.6435 50.7548,-1.9836 29.1281,-7.458 52.8778,-24.7488 69.9933,-50.9581 5.0264,-7.697 15.9287,-30.2097 18.6673,-38.5471 2.3947,-7.2904 2.5609,-7.5085 5.9479,-7.8058 1.9164,-0.1682 3.9027,-0.8432 4.4139,-1.5 0.9986,-1.2831 4.2017,-13.9657 6.2997,-24.9442 0.7095,-3.7125 1.6202,-6.75 2.0238,-6.75 1.465,0 10.9407,28.7283 10.1529,30.7814 -0.7398,1.9279 -5.7375,4.2186 -9.204,4.2186 -2.1492,0 -3.0496,0.4801 -3.0496,1.626 0,3.5166 -10.4044,27.4345 -15.8228,36.374 -1.1668,1.925 -2.8593,4.85 -3.7612,6.5 -3.1593,5.7800002 -15.5646,21.3255002 -21.7115,27.2071 -18.0032,17.2266 -53.3852,32.527908 -73.2045,33.8416 -14.9317,0.989723 -27.825,2.242908 -38.5,0.03653 -10.675,-2.206379 -20.2062,-4.527413 -33.5002,-9.5739 z m -142.5,-146.813528 c 0,-0.964 -0.5984,-2.6404 -1.3298,-3.7253 -2.7565,-4.0888 -16.62203,-46.1792 -16.66427,-50.5866 -0.003,-0.3377 2.02687,-0.8926 4.51134,-1.2332 2.48448,-0.3405 5.81561,-1.2906 7.40251,-2.1112 2.57952,-1.3339 2.94862,-1.327 3.48272,0.065 0.3287,0.8564 0.5975,2.3686 0.5975,3.3605 0,3.708 11.0098,37.0505 14.5789,44.1513 l 2.3213,4.6182 -4.7205,2.5692 c -2.5963,1.4131 -5.9489,3.0363 -7.4501,3.607 -2.3293,0.8856 -2.7296,0.7808 -2.7296,-0.7149 z m 6.8158,-7.7027 c -1.0682,-2.3446 -3.8158,-2.408 -3.8158,-0.088 0,1.7989 2.0712,3.503 3.5622,2.9308 1.0059,-0.386 1.066,-1.0597 0.2536,-2.8427 z m -8.176,-57.8148 c -0.7629,-1.8258 -2.5689,-5.1919 -4.0134,-7.4801 -1.4445,-2.2882 -2.62636,-4.4063 -2.62636,-4.7069 0,-1.4756 11.93516,12.2466 11.96516,13.7567 0.064,3.1962 -3.8113,2.054 -5.3254,-1.5697 z"
           id="path3919-2"
           style="fill:#4faca5;stroke:none;display:inline" />
      </g>
      <g
         transform="translate(-3017.3215,-1943.0357)"
         id="g4341"
         style="stroke:none">
        <path
           d="m 2263.2278,1689.4612 c -1.5536,-0.6254 -2.6924,-2.5547 -3.8418,-6.5084 -1.1414,-3.9262 -2.0436,-5.4621 -2.9944,-5.0972 -0.7484,0.2872 -3.9696,-0.321 -7.1582,-1.3516 -10.2095,-3.2996 -31.7056,-9.7964 -34.5474,-10.4412 -2.7347,-0.6206 -2.75,-0.671 -2.75,-9.105 0,-7.5685 0.198,-8.4809 1.8401,-8.4809 3.1299,0 18.2409,3.7788 24.2113,5.1489 l 22.9588,5.6844 c 2.3304,0.5002 1.4744,-5.0573 11.4203,-5.8333 1.2722,0 4.1808,2.1262 7.1818,5.25 6.3079,6.5659 25.7273,22.744 25.0342,23.4372 -0.5498,0.5498 -37.5926,8.3576 -38.5723,8.2494 -0.3156,-0.035 -1.5675,-0.4634 -2.7821,-0.9523 z m -226.0226,-77.7737 c 0.6312,-1.2134 0.7068,-2.7356 0.7155,-5.3924 0.013,-3.9829 -0.3952,-4.9695 -2.7347,-6.6079 -5.0065,-3.5062 -7.3028,-2.6321 -15.7122,1.6082 -8.0441,4.0562 -2.2836,1.1352 -7.5342,3.3147 l -14.0036,-4.5129 c -4.6386,-1.4949 -14.575,-4.3759 -22,-6.6648 -7.425,-2.2889 -17.775,-5.4337 -23,-6.9884 l -111,-33.6194 c -4.583,-1.642 -10.975,-3.3108 -14,-4.3394 -3.025,-1.0285 -7.9488,-2.5775 -10.9418,-3.4422 -5.3547,-1.547 -8.2858,-2.5365 -8.2858,-2.5365 -1.8854,5.5195 -12.6009,4.5224 -12.8925,1.9705 -3.26,-4.801 -17.9671,-16.7833 -16.4247,-20.3602 1.1952,-1.1952 14.7079,-4.3806 27.8686,-6.8772 2.2328,0.8946 4.1717,0.8537 5.6559,6.4953 l 1.5,3.9693 22.5203,6.2756 c 26.6833,7.4357 59.0606,17.9572 65.7519,19.8807 l 142.2353,42.3665 c 0.01,0.6875 0.8255,1.25 1.8187,1.25 1.8213,0 12.9895,3.3854 16.6941,5.0605 1.1,0.4974 5.6,2.0114 10,3.3645 10.8487,3.3362 30.6701,9.3759 38,11.5789 3.3,0.9918 16.575,5.0209 29.5,8.9536 l 71.0068,19.3316 c -1.2132,0.2662 4.1236,7.09 1.2159,7.1057 -1.65,0.01 -8.877,2.1107 -12.6361,2.5831 -6.374,0.8008 -19.0304,2.0959 -21.2595,0.5568 -1.0049,-0.6938 -7.2271,-2.9218 -13.8271,-4.9511 -33.9646,-10.443 -50.588,-15.4927 -66,-20.0487 -4.95,-1.4633 -10.125,-3.049 -11.5,-3.5239 -2.1393,-0.7389 -11.0567,-3.473 -34.3648,-10.5367 z"
           id="path3913-3"
           style="fill:#ea1615;stroke:none;display:inline" />
        <path
           d="m 2263.1892,1691.663 c -1.4977,-0.6032 -2.6874,-2.5401 -3.7426,-6.0931 -1.7909,-6.0309 -0.8653,-10.3527 2.7643,-8.934 2.6869,1.0502 26.6407,4.0649 32.424,4.2945 2.3375,0.093 8.8929,0.8676 8.8929,1.2853 0,0.4178 -7.0054,1.0744 -9.8929,1.8955 -2.8875,0.8212 -13.2378,4.6338 -18.1118,6.028 -9.8411,2.815 -9.2953,2.7475 -12.3339,1.5238 z m -14.3043,-14.9876 c -8.0584,-2.697 -31.0575,-9.691 -34.25,-10.4154 -2.6629,-0.6043 -3.8903,-3.7632 -1.9323,-4.9732 0.4497,-0.278 6.6372,1.3238 13.75,3.5595 7.1128,2.2356 16.4782,5.0984 20.8119,6.3616 8.7196,2.5416 12.175,4.8716 9.6204,6.487 -1.8244,1.1537 -1.3114,1.2191 -8,-1.0195 z m -67.5317,-20.2179 c -5.1688,-1.4493 -9.3683,-3.1705 -15.9683,-5.1998 -33.9646,-10.4431 -50.588,-15.4927 -66,-20.0487 -4.95,-1.4633 -10.125,-3.049 -11.5,-3.5239 -2.1393,-0.7389 -11.0567,-3.4731 -34.3648,-10.5367 -2.6756,-0.8109 -5.664,-1.4743 -6.6408,-1.4743 -0.9768,0 -3.56,-0.7988 -5.7405,-1.775 -3.5165,-1.5744 -3.8671,-2.0382 -3.1027,-4.1045 0.6363,-1.7203 1.3178,-2.1358 2.6053,-1.5888 1.6543,0.7029 5.263,1.8376 20.2435,6.365 3.575,1.0805 14.825,4.5269 25,7.6588 10.175,3.1318 19.85,6.0511 21.5,6.4872 1.65,0.4361 8.85,2.6091 16,4.829 7.15,2.2198 24.7,7.5152 39,11.7675 14.3,4.2523 34.5551,10.1796 34.8255,10.3939 0.6215,0.4925 -7.8526,0.1365 -10.7208,0.9849 -1.1981,0.3544 -2.7456,-0.048 -5.1364,-0.2346 z m -169.5186,-51.9302 -13.9497,-4.233 c -4.6635,-1.4151 -14.575,-4.3759 -22,-6.6648 -18.0542,-5.5392 -33.7295,-10.419 -49.7293,-15.2967 l 1.5113,-4.8802 90.4602,28.1883 z m 25.0503,-3.7319 c 0,-0.4833 1.3607,-1.4423 3.0237,-2.1312 1.6631,-0.6888 3.4494,-1.9809 3.9696,-2.8713 0.8199,-1.4032 0.9491,-1.3525 0.97,0.3812 0.014,1.2021 -1.2024,2.6981 -3.0506,3.75 -3.3988,1.9344 -4.9127,2.2029 -4.9127,0.8713 z m -9.6152,-3.8866 c -1.5024,-0.9898 -2.6693,-4.9409 -1.6459,-5.5733 0.4511,-0.2788 1.3022,1.0333 1.8914,2.9158 0.5892,1.8825 1.026,3.4159 0.9705,3.4075 -0.055,-0.01 -0.6026,-0.346 -1.216,-0.75 z m -116.6057,-23.268 c -4.6384,-1.5639 -56.2815,-16.9939 -68.7791,-20.6213 -4.675,-1.3569 -10.975,-3.3087 -14,-4.3372 -3.025,-1.0285 -7.9488,-2.5775 -10.9418,-3.4422 -5.3547,-1.547 -8.5536,-2.8937 -8.5536,-2.8937 -0.7774,4.6646 -9.7499,6.0065 -12.6247,2.3277 -5.2954,-4.4977 -17.8226,-16.5591 -15.9749,-20.3049 0.7934,-0.7935 1.095,-0.6368 1.095,0.5688 0,1.9166 6.6054,6.7361 9.2322,6.7361 0.9723,0 1.7678,0.675 1.7678,1.5 0,2.3149 1.7906,1.7733 2.4796,-0.75 0.3379,-1.2375 1.766,-4.7644 3.1736,-7.8376 1.9866,-4.3373 3.5311,-5.2163 6.0266,-6.1187 6.2908,-1.6229 8.586,1.067 9.8639,5.9665 0.9903,3.7968 0.6921,2.5044 -4.5813,-0.2213 -1.9497,-1.0077 -6.1353,-0.039 -8.5127,4.5584 -1.8225,3.5244 -1.5472,7.5439 0.4864,7.0986 0.7637,-0.1673 2.553,0.1264 3.9762,0.6526 1.4233,0.5262 5.7377,1.8848 9.5877,3.019 3.85,1.1343 13.4895,4.1864 21.5,6.5186 l 76.0274,22.1346 c 9.6812,-20.1517 2.8891,6.8115 -1.2483,5.446 z"
           id="path3905-9"
           style="fill:#a20d0e;stroke:none;display:inline" />
      </g>
      <path
         d="m -995.59609,-65.32169 c -2.4078,-3.18346 -2.08166,-4.71398 1.70034,-6.51752 l 3.5,-1.66903 0,-26.18907 c 0,-18.69328 0.3688,-27.29836 1.2883,-30.06478 0.9325,-2.80547 1.0337,-5.39453 0.3667,-9.37573 -1.0039,-5.99224 -2.0651,-102.08525 -1.1678,-105.75 0.5139,-2.09881 1.086,-2.25 8.5128,-2.25 7.4242,0 7.9998,0.15196 8.522,2.25 0.3081,1.2375 0.4291,24.44885 0.2691,51.58078 l -0.2911,49.33078 -3,2.14466 c -1.65,1.17957 -4.2843,3.4054 -5.854,4.9463 -2.6031,2.55538 -2.729,2.98973 -1.4329,4.94179 0.7815,1.1771 2.9254,2.94701 4.7642,3.93315 1.8387,0.98613 3.8167,2.26647 4.3954,2.84519 0.691,0.69096 0.9543,8.69934 0.767,23.32555 -0.1569,12.25034 0.11529,25.56637 0.49529,27.08126 0.4616,1.83914 1.89171,1.35875 4.48351,2.68098 4.7322,2.41419 3.65461,4.37939 0.62964,8.89766 l -13.33134,24.76642 z m 6.40034,-197.01613 c -1.3038,-1.30385 -1.7835,-59.09664 -0.5522,-65.25317 l 17.329,-7.61222 0.023,36.86539 c 0,22.62222 -0.3186,35.11861 -1.2,36 -0.6909,0.69091 -4,1.2 -7.8,1.2 -3.8,0 -7.109,-0.50909 -7.8,-1.2 z m -0.9946,-318.18103 c 0.1785,-14.36544 0.5428,-26.73773 0.8096,-27.49398 0.3035,-0.86048 -2.6375,-1.75125 -4.515,-2.38049 -4.3903,-1.47147 -6.69845,-7.81799 -6.0994,-10.20076 l 18.7715,-29.53743 c 1.0281,-0.01 18.8279,29.47128 18.8279,31.39921 0,1.02199 -1.6598,6.43539 -4.1907,7.56851 l -6.1908,1.87627 0.2489,24.82484 0.068,140.08081 0.017,97.81503 -3.4046,1.83349 c -3.3453,1.80159 -3.4563,1.79663 -6.3804,-0.28549 -1.6367,-1.16544 -3.8063,-2.12587 -4.8214,-2.13429 -1.0151,-0.008 -2.3475,-0.34592 -2.9609,-0.75 -1.6545,-1.08994 -2.623,-4.96941 -1.4255,-5.70955 0.7075,-0.43721 1.0484,-27.92385 1.0646,-85.83416 z"
         id="path3909-1"
         style="fill:#1617b6;stroke:none;display:inline" />
      <g
         transform="translate(-1049.5266,-1799.6911)"
         id="g4384"
         style="stroke:none">
        <path
           d="m -11.101955,1507.1538 c -2.475,1.286 -8.55,4.1273 -13.5,6.3139 -4.95,2.1867 -20.1738,9.4238 -33.83066,16.0824 -11.60261,5.9842 -25.61093,12.0831 -36.03825,17.044 -10.476605,4.9906 -11.578835,6.0787 -11.617455,11.4681 -0.0213,2.9734 -4.62711,8.2848 -7.71913,8.9017 -1.53699,0.3067 -6.61952,-0.3324 -11.29452,-1.4202 -4.675,-1.0878 -9.51251,-2.1909 -10.75,-2.4515 -1.50548,-0.317 -4.23751,-0.083 -5.76721,-0.9759 0.7749,-2.4985 2.82763,-9.2242 4.65525,-13.3786 5.54611,-12.607 10.21516,-19.9074 15.78316,-17.7904 3.73705,1.9144 6.91654,0.8629 8.11452,2.7843 1.2375,0.3004 1.98214,0.9472 6.89286,-1.484 17.441533,-9.0622 28.640205,-14.797 47.571425,-23.9833 l 115.500633,-52.9801 5.947138,-1.2127 5.888852,2.9079 c 4.0493,0.93 7.757421,0.2679 9.807318,-8.1326 l 142.356074,-68.789 c 9.26771,-4.4408 17.03424,-7.6202 19.06206,-9.6992 -1.98891,-2.3354 -2.49356,-2.6804 -2.1777,-4.364 1.38186,-7.3659 7.53391,-9.8418 16.99963,-7.4085 1.98881,0.5113 6.31602,1.4837 9.61602,2.161 3.3,0.6773 6.40661,1.5881 6.90358,2.024 -1.77097,5.6697 -10.0877,18.1882 -14.24927,23.1698 -1.38994,1.6638 -4.16021,3.6293 -9.31168,1.1343 -1.68193,-0.8698 -4.07253,-1.3268 -5.31245,-1.0156 -1.23993,0.3112 -16.82896,7.5779 -34.6423,16.1482 -46.37921,23.3049 -84.06049,42.6427 -115.988704,55.7478 -11.235669,-3.4557 -19.856866,0.4234 -20.046583,4.3398 -0.05269,1.0877 -1.972392,5.4682 -2.95765,5.9295 -26.949525,12.6188 -53.436425,25.2928 -79.894958,38.9289 z"
           id="path3921-1"
           style="fill:#eeef0d;fill-opacity:1;stroke:none;display:inline" />
        <path
           d="m -126.65509,1565.9428 c -4.675,-1.1032 -9.4,-2.3663 -10.5,-2.8067 -2,-0.8009 -2,-0.8009 0,-1.5396 1.1,-0.4062 5.825,-2.424 10.5,-4.4839 13.13428,-5.7872 18.78858,-7.6003 19.98165,-6.4073 1.78322,1.7833 0.0118,10.0161 -2.85947,13.29 -3.47343,3.9604 -6.92786,4.3533 -17.12218,1.9475 z m 20.30946,-17.4554 c -0.34527,-0.8997 -0.21865,-2.2603 0.28138,-3.0234 0.72879,-1.1123 53.407447,-26.928 113.9091667,-55.8224 26.6112683,-12.6772 46.4835343,-22.2157 63.7044743,-30.5249 26.110918,-12.5987 46.126559,-22.3715 74.295519,-35.9744 24.2,-11.687 49.4,-23.8478 56,-27.0239 6.6,-3.1761 20.95657,-10.0993 31.90349,-15.3849 10.94692,-5.2856 20.50942,-9.6101 21.25,-9.6101 2.05688,0 1.61188,-1.8256 -1.10804,-4.5455 -2.99808,-2.9981 -6.3437,-3.1083 -11.68219,-0.3848 -2.23139,1.1384 -4.26482,1.862 -4.51875,1.6081 -0.9266,-0.9266 2.54258,-7.547 4.50509,-8.5973 2.09657,-1.1221 4.84502,-1.6976 7.66696,-1.3247 6.21764,1.8645 14.57266,3.4867 21.07936,5.507 -0.62864,3.8631 -10.00347,19.3616 -12.73182,22.1863 -2.06094,2.0609 -1.93082,2.7835 -5.41781,2.407 -2.30936,-0.2494 -5.46832,-1.4202 -7.17425,-2.1387 -3.48236,-1.4668 0.72001,-1.97 -62.27204,28.2953 -16.225,7.7955 -32.425,15.5408 -36,17.2118 -3.575,1.671 -10.325,4.8357 -15,7.0326 -4.675,2.197 -13.9,6.3693 -20.5,9.2719 -11.42374,5.5054 7.39983,-1.047 -19.548499,10.2957 -10.805048,-3.6781 -18.535955,1.8215 -19.972665,2.4775 -2.258312,1.0312 -0.475062,5.8488 -2.747062,6.8861 -8.732558,3.9871 -17.681383,8.0891 -27.731767,12.8391 -21.94047,10.3694 -54.23128,25.8299 -98.9241,47.3638 -25.80825,12.4349 -46.863447,23.859 -47.334957,23.859 -0.47152,0 -1.58622,-1.9862 -1.93149,-2.8859 z m 361.69054,-167.3637 c 0.825,-0.5332 1.05,-0.9694 0.5,-0.9694 -0.55,0 -1.675,0.4362 -2.5,0.9694 -0.825,0.5331 -1.05,0.9693 -0.5,0.9693 0.55,0 1.675,-0.4362 2.5,-0.9693 z"
           id="path3915-2"
           style="fill:#b3b40a;stroke:none;display:inline" />
      </g>
      <g
         transform="translate(-2997.5254,-1895.5819)"
         id="g4567"
         style="stroke:none">
        <path
           d="m 2189.1335,1600.3541 c 7.7342,-4.9347 30.1011,-21.4136 35.0785,-31.6594 1.0818,-2.227 2.0087,-6.8056 2.2458,-11.0937 0.579,-10.4728 -2.8602,-17.1789 -14.4238,-28.1248 -10.9138,-10.3308 -13.338,-11.6723 -17.3467,-9.5993 -1.6227,0.8391 -4.5921,1.5257 -6.5988,1.5257 -4.6004,0 -8.2827,-3.6813 -10.5925,-10.5899 -0.903,-2.7006 -2.4581,-7.0023 -3.456,-9.5595 -2.0807,-5.3322 -1.0391,-7.8506 3.2468,-7.8506 1.3224,0 5.9503,-1.197 10.2843,-2.66 7.0768,-2.3888 8.2074,-2.5243 11.0916,-1.3296 3.8097,1.578 6.96,6.3078 6.9865,10.4896 0.025,3.89 0.2142,4.1159 8.6326,10.2915 8.7488,6.418 19.0549,17.1867 22.714,23.7336 5.0242,8.9893 6.7618,16.0392 6.0271,24.4539 -0.3612,4.1365 -1.4928,9.7896 -2.5148,12.5624 -3.2023,8.6887 -14.1961,22.1714 -24.6205,30.1946 -7.5302,4.9597 -15.4989,2.0051 -19.9374,4.4186 -4.304,2.3404 -4.2866,7.9409 -5.5841,11.6365 -3.9681,1.7336 -10.1795,3.0954 -15.1525,5.7343 -32.3737,12.6347 -76.3218,21.6964 -119.0305,24.543 -8.825,0.5882 -20.0955,1.3759 -25.0455,1.7505 l -9,0.6811 c -6.5653,0.015 -13.1306,0.03 -19.6959,0.045 -0.7172,-0.2389 -10.0791,-0.9273 -20.8041,-1.5299 -17.7174,-0.9954 -40.3862,-3.1117 -48.7887,-4.5548 -2.8504,-0.4896 -3.7081,-0.091 -6.434,2.9877 -1.7299,1.9539 -3.7464,3.5526 -4.4811,3.5526 -1.9192,0 -8.7314,-4.4621 -16.6625,-10.9142 -3.7764,-3.0722 -7.7139,-6.2032 -8.75,-6.9578 -5.8065,-4.3015 9.3226,-7.554 10.8664,-8.0863 7.0125,-2.3979 13.959,-4.9601 15.4366,-5.6937 3.6371,-1.8057 6.5643,-4.4377 7.9667,-0.081 4.7958,2.3662 3.8471,3.0756 3.0967,9.7417 0.6875,0.01 9.35,0.9125 19.25,2.017 25.2179,2.8135 56.8664,2.1689 85.062,0.5914 28.1956,-1.5775 88.294,-10.1534 125.4792,-20.8316 5.5335,-1.5891 24.1595,-2.9189 28.4976,-4.5849 4.2284,-1.6239 -4.9441,-4.135 -2.1903,-5.8018 z"
           id="path3923-6"
           style="fill:#ff7f2a;stroke:none;display:inline" />
        <path
           d="m 1920.1937,1628.6692 c 1.4707,-8.8177 9.49,-12.3882 9.5454,-4.25 0.013,1.8775 -0.5258,2.25 -3.2531,2.25 -2.4616,0 -3.7137,0.6789 -5.0722,2.75 l -1.8039,2.75 z m 61.5607,20.974 c -16.6809,-0.9812 -34.6,-2.6445 -48.5879,-4.5101 -5.0458,-0.6729 -5.1056,-0.6487 -7.2163,2.9288 -2.2671,3.8424 -5.0737,4.6643 -7.1958,2.1073 -0.6847,-0.825 -1.7843,-1.5 -2.4435,-1.5 -0.6592,0 -4.9279,-3.15 -9.4861,-7 -4.5582,-3.85 -7.5684,-7 -6.6895,-7 0.8789,0 4.4661,1.1482 7.9715,2.5515 4.5918,1.8382 6.7233,3.3058 7.6251,5.25 l 1.2517,2.6985 0.8918,-2.3545 c 0.5459,-1.4413 1.439,-2.1445 2.3026,-1.8131 0.776,0.2977 1.6353,-0.043 1.9095,-0.7582 0.3769,-0.9822 1.8011,-1.1073 5.8328,-0.5121 31.3673,4.6305 94.6846,5.9063 128.3341,2.5859 47.6743,-4.7043 89.6099,-14.5534 122.4991,-28.7706 3.3122,-1.4314 10.7662,-6.438 14.3745,-8.0971 3.2954,-1.5153 6.5766,-2.625 8.545,-2.9252 l 7.6746,-5.3318 c 4.6828,-3.2533 11.0495,-8.0861 14.0728,-10.8492 9.9981,-9.1377 17.3341,-22.3218 17.3341,-31.1524 0,-4.7167 1.4234,-6.8349 2.3113,-3.4394 0.8408,3.2153 -0.8674,17.0088 -2.62,21.1564 -3.5755,8.4611 -14.6524,21.6258 -23.9206,28.4293 -6.9489,4.5303 -16.9455,2.107 -20.1687,4.1071 -3.9058,2.4236 -1.3311,9.4763 -4.2795,10.9251 -6.923,3.402 -9.235,3.8146 -16.3225,5.9364 -12.3916,4.2433 -41.0209,12.6398 -57.7564,16.9389 -21.4872,5.5198 -44.2368,8.6433 -76.2436,10.4681 -20.7478,2.6302 -41.8307,1.0084 -60.0001,-0.07 z"
           id="path4520"
           style="fill:#c16c31;fill-opacity:1;stroke:none;display:inline" />
      </g>
      <g
         transform="translate(-2050.4368,-355.93054)"
         id="g4376"
         style="stroke:none">
        <path
           d="m 936.62936,57.14015 c -1.5299,-2.9171 -9.16789,-28.7288 -9.16789,-30.9817 0,-2.1587 1.76118,-3.2963 5.10319,-3.2963 2.3281,0 3.3733,-2.3557 4.8805,-11 0.6233,-3.5749999 2.2747,-11.35169992 3.6696,-17.2816999 3.5498,-12.2394331 7.0996,-24.4788671 10.6494,-36.7183001 20.4708,-53.624197 42.40669,-89.80231 73.12214,-120.5981 14.3107,-14.34808 25.0071,-23.11283 35.163,-28.74063 3.5937,4.4025 8.9504,6.43288 9.8856,5.96291 4.299,-2.51889 6.6721,-10.67556 8.0011,-14.67759 13.1006,-5.2062 28.7598,-9.1077 42.1619,-9.22534 12.6953,-0.018 22.3583,1.27235 33.8636,6.44465 10.865,4.8845 16.6589,8.8974 26.3433,18.2457 13.19,12.7323 25.7878,34.1955 33.1464,56.4723 3.8292,11.592 3.8466,11.6208 8.3906,13.87 7.1162,3.5223 7.2966,4.6052 2.7467,16.484203 -5.6131,14.654897 -7.4902,18.738097 -8.627,18.766797 -0.55,0.014 -5.6125,-4.8137 -11.25,-10.728 -11.5092,-12.0743 -12.2482,-13.9883 -7.25,-18.7769 1.65,-1.5808 2.9989,-3.5775 2.9975,-4.4371 0,-2.7832 -7.6229,-23.3689 -11.4992,-31.0717 -10.9681,-21.7956 -25.6795,-37.0557 -42.3513,-43.9306 -16.4091,-6.7665 -30.7512,-7.5085 -47.647,-2.465 -8.0917,1.97907 -14.9414,4.49145 -21.1044,7.51533 -1.9689,0.96605 -4.9797,-2.80775 -7.3437,-1.3184 -5.4837,3.45481 -10.2529,12.55008 -10.2529,12.55008 -22.9989,18.18057 -52.5224,52.75687 -72.74664,90.15739 -12.78252,26.254229 -20.56504,43.222743 -28.7047,75.5484001 -2.3941,7.9276 -6.2973,28.9196999 -5.6775,30.5347999 0.3313,0.8635 1.6661,1.9744 2.9661,2.4687 2.3891,0.9083 3.1638,3.3355 1.4105,4.4191 -0.5242,0.324 -4.7916,6.3943 -9.4831,13.4896 -4.6915,7.0953 -8.965,13.1694 -9.4967,13.498 -0.5317,0.3286 -1.3864,-0.2027 -1.8993,-1.1806 z"
           id="path3911-2"
           style="fill:#18e119;stroke:none;display:inline" />
        <path
           d="m 936.4248,56.096354 c -1.3939,-2.6552 -9.4591,-29.4562 -9.0018,-29.9135 0.2089,-0.2089 2.4919,0.2559 5.0734,1.0328 2.5815,0.7769 7.43614,1.7228 10.78804,2.102 3.3519,0.3793 6.2797,1.1896 6.5063,1.8008 0.5193,1.4007 -8.9543,23.4129 -10.9243,25.3829 -1.28224,1.2823 -1.58204,1.2325 -2.44164,-0.405 z m 9.01724,-30.4899 c -2.8334,-0.8177 -3.1297,-1.2004 -2.2304,-2.8807 0.5704,-1.0657 2.3499,-7.0133 3.9545,-13.2168998 18.181,-70.2883002 51.67206,-133.7928742 91.04336,-172.6336842 4.7567,-4.69257 15.3246,-14.13678 23.3859,-20.40887 5.2469,-0.60281 4.8087,0.56806 9.8256,-2.923 1.3852,-0.81798 5.3071,-4.63984 6.4623,-7.55082 14.9247,-8.10436 31.1036,-13.17376 48.3262,-14.70241 18.2507,-1.446 36.6538,6.3687 53.868,22.8748 13.4457,12.8925 25.9595,34.4917 33.6408,58.0649 5.4871,16.8395 6.0785,20.6585 3.553,22.944 -2.877,2.6037 -8.2636,3.5109 -11.862,1.9979 -3.0396,-1.278 -5.1758,-5.776 -5.1968,-10.9419 -0.013,-3.1546 -7.354,-23.2606 -11.5047,-31.5088 -4.4813,-8.9052 -10.172,-17.5057 -16.4332,-24.8358 -4.3684,-5.1142 -6.9363,-7.6869 -13.5651,-13.5911 -2.7576,-2.456 -2.3939,-2.3722 4.5,1.037 4.125,2.04 9.8969,5.4798 12.8265,7.644 2.9296,2.1642 5.561,3.7005 5.8477,3.4138 0.9559,-0.9559 -5.1005,-7.7298 -11.313,-12.6531 -13.0085,-10.3092 -26.7666,-15.006 -43.9558,-15.006 -5.6511,0 -13.3416,0.6459 -17.09,1.4353 -13.5342,2.29472 -24.069,8.32266 -32.8936,13.95989 -3.3448,-1.81268 -2.9441,-1.65302 -5.7981,-1.46626 -1.4395,1.13642 -6.6741,4.91921 -8.7901,10.14213 -11.559,8.16213 -34.9669,30.64188 -44.3066,43.42894 -3.2138,4.40001 -7.0382,9.575 -8.4986,11.5 -20.66964,34.774669 -38.65239,72.314135 -49.84196,107.654184 -1.32129,4.0284398 -3.3192,13.40600019 -5.7384,27.3458 -1.6091,9.2716 -2.6884,12.158 -4.448,11.8945 -0.275,-0.041 -1.9704,-0.4992 -3.7675,-1.0178 z m 261.80186,-113.4194 c -3.4554,-3.5984 -6.0225,-6.80259 -5.7047,-7.12039 0.9415,-0.9415 9.4287,0.6577 10.4134,1.9621 0.9739,1.28989 3.2569,8.69729 3.2569,10.56699 0,2.2406 -1.7826,1.0302 -7.9656,-5.4087 z"
           id="path3907-8"
           style="fill:#0ba60e;stroke:none;display:inline" />
      </g>
      <path
         d="m -792.14289,-392.94344 c -0.47303,-21.27062 -20.10165,-14.39218 -22.14074,0.63529 -2.21353,16.31301 1.66509,17.52748 1.66509,17.52748 1.63891,-0.4312 3.83107,3.03905 10.88913,-1.95611 -11.41261,-3.35755 -5.53593,-16.49875 -0.38108,-19.33509 3.47358,-1.91127 6.47072,2.09089 9.9676,3.12843 z"
         id="path4582"
         style="color:#000000;fill:#d86756;fill-opacity:1;fill-rule:nonzero;stroke:none;stroke-width:1;marker:none;visibility:visible;display:inline;overflow:visible;enable-background:accumulate" />
    </g>
  </g>
  <g
     transform="translate(-9.5612591,-154.73792)"
     id="layer3"
     style="display:inline">
    <g
       transform="matrix(0.71474948,-0.69938056,0.69938056,0.71474948,-108.2488,132.98956)"
       id="text3954"
       style="font-size:32px;font-style:normal;font-variant:normal;font-weight:normal;font-stretch:normal;text-align:start;line-height:125%;letter-spacing:0px;word-spacing:0px;writing-mode:lr-tb;text-anchor:start;fill:#008000;fill-opacity:1;stroke:none;font-family:Liberation Sans;-inkscape-font-specification:Liberation Sans">
      <path
         d="m 82.46962,399.76959 -5.71875,-9.14062 -6.859375,0 0,9.14062 -2.984375,0 0,-22.01562 10.359375,0 c 2.479151,2e-5 4.393212,0.55471 5.742187,1.66406 1.348939,1.10939 2.023417,2.65366 2.023438,4.63281 -2.1e-5,1.63543 -0.476583,3.01043 -1.429688,4.125 -0.953143,1.1146 -2.268246,1.81772 -3.945312,2.10938 l 6.25,9.48437 z m -0.4375,-15.6875 c -1.8e-5,-1.28123 -0.434913,-2.25779 -1.304688,-2.92969 -0.869807,-0.67185 -2.12241,-1.00779 -3.757812,-1.00781 l -7.078125,0 0,8.125 7.203125,0 c 1.572902,1e-5 2.789047,-0.36717 3.648437,-1.10156 0.859358,-0.73436 1.289045,-1.76301 1.289063,-3.08594 z"
         id="path4653" />
      <path
         d="m 103.86024,391.30084 c -1e-5,2.95834 -0.65105,5.16146 -1.95312,6.60938 -1.3021,1.44791 -3.19272,2.17187 -5.671875,2.17187 -2.468757,0 -4.333338,-0.7526 -5.59375,-2.25781 -1.260419,-1.50521 -1.890627,-3.67968 -1.890625,-6.52344 -2e-6,-5.83332 2.526038,-8.74998 7.578125,-8.75 2.583322,2e-5 4.484365,0.71096 5.703125,2.13281 1.21873,1.42189 1.82811,3.62762 1.82812,6.61719 z m -2.95312,0 c -1e-5,-2.33332 -0.34637,-4.02863 -1.039063,-5.08594 -0.69272,-1.05727 -1.856781,-1.58592 -3.492187,-1.58593 -1.645841,1e-5 -2.835944,0.53907 -3.570313,1.61718 -0.734379,1.07814 -1.101567,2.76304 -1.101562,5.05469 -5e-6,2.22918 0.361974,3.90365 1.085937,5.02344 0.723952,1.11979 1.861972,1.67969 3.414063,1.67969 1.687489,0 2.893217,-0.54167 3.617187,-1.625 0.723948,-1.08333 1.085928,-2.77604 1.085938,-5.07813 z"
         id="path4655" />
      <path
         d="m 107.37587,399.76959 0,-23.1875 2.8125,0 0,23.1875 z"
         id="path4657" />
      <path
         d="m 114.50087,399.76959 0,-23.1875 2.8125,0 0,23.1875 z"
         id="path4659" />
    </g>
    <g
       transform="matrix(0.99994692,-0.01030346,0.01030346,0.99994692,0,0)"
       id="text3962"
       style="font-size:32px;font-style:normal;font-variant:normal;font-weight:normal;font-stretch:normal;text-align:start;line-height:125%;letter-spacing:0px;word-spacing:0px;writing-mode:lr-tb;text-anchor:start;fill:#ff6600;fill-opacity:1;stroke:none;font-family:Liberation Sans;-inkscape-font-specification:Liberation Sans">
      <path
         d="m 588.65051,505.07678 0,9.125 -2.96875,0 0,-9.125 -8.46875,-12.89062 3.28125,0 6.70313,10.48437 6.67187,-10.48437 3.28125,0 z"
         id="path4662" />
      <path
         d="m 604.35364,514.51428 c -1.69792,0 -2.97396,-0.44791 -3.82813,-1.34375 -0.85417,-0.89583 -1.28125,-2.12499 -1.28125,-3.6875 0,-1.74999 0.57552,-3.09374 1.72657,-4.03125 1.15103,-0.93749 3.0078,-1.43749 5.57031,-1.5 l 3.79687,-0.0625 0,-0.92187 c -1e-5,-1.37499 -0.29168,-2.35936 -0.875,-2.95313 -0.58334,-0.59373 -1.50001,-0.89061 -2.75,-0.89062 -1.26042,1e-5 -2.17709,0.21355 -2.75,0.64062 -0.57292,0.4271 -0.91667,1.10939 -1.03125,2.04688 l -2.9375,-0.26563 c 0.47917,-3.04165 2.73958,-4.56248 6.78125,-4.5625 2.12499,2e-5 3.72395,0.487 4.79688,1.46094 1.0729,0.97397 1.60936,2.38283 1.60937,4.22656 l 0,7.28125 c -1e-5,0.83334 0.10936,1.46094 0.32813,1.88281 0.21873,0.42188 0.6354,0.63282 1.25,0.63282 0.27081,0 0.57811,-0.0365 0.92187,-0.10938 l 0,1.75 c -0.70835,0.16667 -1.43231,0.25 -2.17187,0.25 -1.04168,0 -1.7995,-0.27344 -2.27344,-0.82031 -0.47397,-0.54687 -0.7422,-1.40364 -0.80469,-2.57031 l -0.0937,0 c -0.71876,1.29167 -1.5547,2.20573 -2.50781,2.74218 -0.95313,0.53646 -2.11199,0.80469 -3.47656,0.80469 z m 0.64062,-2.10937 c 1.03124,0 1.94791,-0.23438 2.75,-0.70313 0.80208,-0.46874 1.43489,-1.11197 1.89844,-1.92969 0.46353,-0.8177 0.6953,-1.65884 0.69531,-2.52343 l 0,-1.39063 -3.07812,0.0625 c -1.32293,0.0208 -2.32553,0.15626 -3.00781,0.40625 -0.6823,0.25001 -1.20574,0.63543 -1.57032,1.15625 -0.36459,0.52084 -0.54688,1.20313 -0.54687,2.04688 -1e-5,0.91667 0.24739,1.625 0.74219,2.125 0.49478,0.5 1.20051,0.75 2.11718,0.75 z"
         id="path4664" />
      <path
         d="m 634.04114,514.20178 -3.26563,0 -2.95312,-11.95312 -0.5625,-2.64063 c -0.0938,0.46877 -0.2396,1.14324 -0.4375,2.02344 -0.19793,0.88022 -1.26043,5.07032 -3.1875,12.57031 l -3.25,0 -4.73438,-16.90625 2.78125,0 2.85938,11.48438 c 0.0729,0.25 0.29687,1.28125 0.67187,3.09375 l 0.26563,-1.15625 3.53125,-13.42188 3.01562,0 2.95313,11.60938 0.71875,2.96875 0.48437,-2.17188 3.20313,-12.40625 2.75,0 z"
         id="path4666" />
    </g>
    <g
       transform="matrix(0.96071336,0.27754249,-0.27754249,0.96071336,0,0)"
       id="text3966"
       style="font-size:32px;font-style:normal;font-variant:normal;font-weight:normal;font-stretch:normal;text-align:start;line-height:125%;letter-spacing:0px;word-spacing:0px;writing-mode:lr-tb;text-anchor:start;fill:#ff0000;fill-opacity:1;stroke:none;font-family:Liberation Sans;-inkscape-font-specification:Liberation Sans">
      <path
         d="m 766.84589,384.8916 0,8.1875 12.28125,0 0,2.46875 -12.28125,0 0,8.92188 -2.98438,0 0,-22.01563 15.64063,0 0,2.4375 z"
         id="path4669"
         style="fill:#d40000" />
      <path
         d="m 797.25214,396.00098 c -2e-5,2.95834 -0.65106,5.16146 -1.95313,6.60937 -1.3021,1.44792 -3.19272,2.17188 -5.67187,2.17188 -2.46876,0 -4.33334,-0.75261 -5.59375,-2.25782 -1.26042,-1.5052 -1.89063,-3.67968 -1.89063,-6.52343 0,-5.83332 2.52604,-8.74999 7.57813,-8.75 2.58332,10e-6 4.48436,0.71095 5.70312,2.13281 1.21874,1.42189 1.82811,3.62761 1.82813,6.61719 z m -2.95313,0 c -10e-6,-2.33333 -0.34637,-4.02864 -1.03906,-5.08594 -0.69272,-1.05728 -1.85678,-1.58592 -3.49219,-1.58594 -1.64584,2e-5 -2.83594,0.53908 -3.57031,1.61719 -0.73438,1.07814 -1.10157,2.76303 -1.10156,5.05469 -1e-5,2.22917 0.36197,3.90365 1.08593,5.02343 0.72396,1.1198 1.86198,1.67969 3.41407,1.67969 1.68749,0 2.89321,-0.54166 3.61718,-1.625 0.72395,-1.08333 1.08593,-2.77603 1.08594,-5.07812 z"
         id="path4671"
         style="fill:#d40000" />
      <path
         d="m 800.83026,404.46973 0,-12.96875 c 0,-1.18749 -0.0312,-2.49999 -0.0937,-3.9375 l 2.65625,0 c 0.0833,1.91668 0.125,3.06772 0.125,3.45312 l 0.0625,0 c 0.44791,-1.4479 0.96354,-2.43748 1.54688,-2.96875 0.58332,-0.53123 1.40624,-0.79686 2.46875,-0.79687 0.37499,10e-6 0.75519,0.0521 1.14062,0.15625 l 0,2.57812 c -0.37501,-0.10415 -0.87501,-0.15623 -1.5,-0.15625 -1.16667,2e-5 -2.0573,0.50262 -2.67187,1.50781 -0.61459,1.00522 -0.92188,2.44533 -0.92188,4.32032 l 0,8.8125 z"
         id="path4673"
         style="fill:#d40000" />
      <path
         d="m 827.64276,404.46973 -3.26562,0 -2.95313,-11.95313 -0.5625,-2.64062 c -0.0938,0.46876 -0.23959,1.14324 -0.4375,2.02343 -0.19793,0.88022 -1.26043,5.07032 -3.1875,12.57032 l -3.25,0 -4.73437,-16.90625 2.78125,0 2.85937,11.48437 c 0.0729,0.25001 0.29687,1.28126 0.67188,3.09375 l 0.26562,-1.15625 3.53125,-13.42187 3.01563,0 2.95312,11.60937 0.71875,2.96875 0.48438,-2.17187 3.20312,-12.40625 2.75,0 z"
         id="path4675"
         style="fill:#d40000" />
      <path
         d="m 838.89276,404.78223 c -1.69792,0 -2.97396,-0.44792 -3.82812,-1.34375 -0.85417,-0.89583 -1.28126,-2.125 -1.28125,-3.6875 -1e-5,-1.75 0.57552,-3.09375 1.72656,-4.03125 1.15104,-0.93749 3.00781,-1.43749 5.57031,-1.5 l 3.79688,-0.0625 0,-0.92188 c -2e-5,-1.37499 -0.29168,-2.35936 -0.875,-2.95312 -0.58335,-0.59374 -1.50001,-0.89061 -2.75,-0.89063 -1.26043,2e-5 -2.17709,0.21356 -2.75,0.64063 -0.57293,0.42709 -0.91668,1.10938 -1.03125,2.04687 l -2.9375,-0.26562 c 0.47916,-3.04165 2.73957,-4.56249 6.78125,-4.5625 2.12499,10e-6 3.72394,0.48699 4.79687,1.46093 1.0729,0.97398 1.60936,2.38283 1.60938,4.22657 l 0,7.28125 c -2e-5,0.83333 0.10936,1.46094 0.32812,1.88281 0.21874,0.42188 0.6354,0.63281 1.25,0.63281 0.27082,0 0.57811,-0.0365 0.92188,-0.10937 l 0,1.75 c -0.70835,0.16666 -1.43231,0.25 -2.17188,0.25 -1.04168,0 -1.79949,-0.27344 -2.27344,-0.82032 -0.47397,-0.54687 -0.7422,-1.40364 -0.80468,-2.57031 l -0.0937,0 c -0.71877,1.29167 -1.5547,2.20573 -2.50782,2.74219 -0.95313,0.53646 -2.11198,0.80469 -3.47656,0.80469 z m 0.64063,-2.10938 c 1.03124,0 1.9479,-0.23437 2.75,-0.70312 0.80207,-0.46875 1.43488,-1.11198 1.89843,-1.92969 0.46353,-0.8177 0.6953,-1.65885 0.69532,-2.52344 l 0,-1.39062 -3.07813,0.0625 c -1.32292,0.0208 -2.32553,0.15625 -3.00781,0.40625 -0.6823,0.25 -1.20574,0.63542 -1.57031,1.15625 -0.36459,0.52084 -0.54688,1.20313 -0.54688,2.04687 0,0.91667 0.24739,1.625 0.74219,2.125 0.49478,0.5 1.20051,0.75 2.11719,0.75 z"
         id="path4677"
         style="fill:#d40000" />
      <path
         d="m 852.45526,404.46973 0,-12.96875 c 0,-1.18749 -0.0312,-2.49999 -0.0937,-3.9375 l 2.65625,0 c 0.0833,1.91668 0.125,3.06772 0.125,3.45312 l 0.0625,0 c 0.44791,-1.4479 0.96354,-2.43748 1.54688,-2.96875 0.58332,-0.53123 1.40624,-0.79686 2.46875,-0.79687 0.37499,10e-6 0.75519,0.0521 1.14062,0.15625 l 0,2.57812 c -0.37501,-0.10415 -0.87501,-0.15623 -1.5,-0.15625 -1.16667,2e-5 -2.0573,0.50262 -2.67187,1.50781 -0.61459,1.00522 -0.92188,2.44533 -0.92188,4.32032 l 0,8.8125 z"
         id="path4679"
         style="fill:#d40000" />
      <path
         d="m 873.75214,401.75098 c -0.52085,1.08333 -1.21095,1.85937 -2.07032,2.32812 -0.85938,0.46875 -1.92448,0.70313 -3.19531,0.70313 -2.13542,0 -3.70573,-0.71875 -4.71094,-2.15625 -1.00521,-1.4375 -1.50781,-3.61458 -1.50781,-6.53125 0,-5.89582 2.07291,-8.84374 6.21875,-8.84375 1.28124,10e-6 2.34895,0.23439 3.20313,0.70312 0.85415,0.46877 1.54165,1.21356 2.0625,2.23438 l 0.0312,0 -0.0312,-1.89063 0,-7.01562 2.8125,0 0,19.70312 c -2e-5,1.76042 0.0312,2.92188 0.0937,3.48438 l -2.6875,0 c -0.0313,-0.16667 -0.0651,-0.55209 -0.10157,-1.15625 -0.0365,-0.60417 -0.0547,-1.125 -0.0547,-1.5625 z m -8.53125,-5.75 c -1e-5,2.36459 0.31249,4.05729 0.9375,5.07812 0.62499,1.02084 1.64061,1.53125 3.04687,1.53125 1.59374,0 2.74999,-0.55208 3.46875,-1.65625 0.71874,-1.10416 1.07811,-2.8177 1.07813,-5.14062 -2e-5,-2.23958 -0.35939,-3.8802 -1.07813,-4.92188 -0.71876,-1.04165 -1.86459,-1.56248 -3.4375,-1.5625 -1.41667,2e-5 -2.44011,0.52345 -3.07031,1.57031 -0.63021,1.04689 -0.94532,2.74741 -0.94531,5.10157 z"
         id="path4681"
         style="fill:#d40000" />
    </g>
    <g
       transform="matrix(0.96101148,0.27650846,-0.27650846,0.96101148,0,0)"
       id="text3970"
       style="font-size:32px;font-style:normal;font-variant:normal;font-weight:normal;font-stretch:normal;text-align:start;line-height:125%;letter-spacing:0px;word-spacing:0px;writing-mode:lr-tb;text-anchor:start;fill:#d40000;fill-opacity:1;stroke:none;font-family:Liberation Sans;-inkscape-font-specification:Liberation Sans">
      <path
         d="m 140.773,389.28564 c -2e-5,1.95834 -0.71356,3.48178 -2.14062,4.57032 -1.4271,1.08854 -3.41147,1.63281 -5.95313,1.63281 l -8.9375,0 0,-22.01563 8,0 c 5.16665,3e-5 7.74998,1.78127 7.75,5.34375 -2e-5,1.3021 -0.3646,2.39585 -1.09375,3.28125 -0.72918,0.88543 -1.76043,1.47918 -3.09375,1.78125 1.74999,0.20835 3.09894,0.79429 4.04688,1.75782 0.9479,0.96355 1.42185,2.17969 1.42187,3.64843 z m -4.28125,-10.10937 c -1e-5,-1.18748 -0.40626,-2.03644 -1.21875,-2.54688 -0.81251,-0.51039 -1.98959,-0.7656 -3.53125,-0.76562 l -5.01562,0 0,6.96875 5.01562,0 c 1.59374,1e-5 2.78384,-0.29947 3.57032,-0.89844 0.78644,-0.59894 1.17967,-1.51821 1.17968,-2.75781 z m 1.26563,9.875 c -2e-5,-2.59374 -1.82293,-3.89062 -5.46875,-3.89063 l -5.5625,0 0,7.9375 5.79687,0 c 1.82291,10e-6 3.15103,-0.33853 3.98438,-1.01562 0.83331,-0.67708 1.24998,-1.6875 1.25,-3.03125 z"
         id="path4684" />
      <path
         d="m 148.9605,395.80127 c -1.69792,0 -2.97396,-0.44792 -3.82812,-1.34375 -0.85417,-0.89583 -1.28125,-2.125 -1.28125,-3.6875 0,-1.74999 0.57552,-3.09374 1.72656,-4.03125 1.15104,-0.93749 3.00781,-1.43749 5.57031,-1.5 l 3.79688,-0.0625 0,-0.92188 c -1e-5,-1.37498 -0.29168,-2.35936 -0.875,-2.95312 -0.58335,-0.59374 -1.50001,-0.89061 -2.75,-0.89063 -1.26043,2e-5 -2.17709,0.21356 -2.75,0.64063 -0.57292,0.4271 -0.91667,1.10939 -1.03125,2.04687 l -2.9375,-0.26562 c 0.47916,-3.04165 2.73958,-4.56248 6.78125,-4.5625 2.12499,2e-5 3.72394,0.487 4.79687,1.46094 1.0729,0.97397 1.60936,2.38282 1.60938,4.22656 l 0,7.28125 c -2e-5,0.83334 0.10936,1.46094 0.32812,1.88281 0.21874,0.42188 0.6354,0.63282 1.25,0.63281 0.27082,10e-6 0.57811,-0.0365 0.92188,-0.10937 l 0,1.75 c -0.70835,0.16667 -1.43231,0.25 -2.17188,0.25 -1.04168,0 -1.79949,-0.27344 -2.27343,-0.82031 -0.47398,-0.54688 -0.7422,-1.40365 -0.80469,-2.57032 l -0.0937,0 c -0.71876,1.29167 -1.5547,2.20573 -2.50781,2.74219 -0.95314,0.53646 -2.11199,0.80469 -3.47657,0.80469 z m 0.64063,-2.10938 c 1.03124,10e-6 1.94791,-0.23437 2.75,-0.70312 0.80207,-0.46875 1.43488,-1.11198 1.89844,-1.92969 0.46352,-0.8177 0.6953,-1.65885 0.69531,-2.52344 l 0,-1.39062 -3.07813,0.0625 c -1.32292,0.0208 -2.32553,0.15626 -3.00781,0.40625 -0.6823,0.25001 -1.20573,0.63542 -1.57031,1.15625 -0.36459,0.52084 -0.54688,1.20313 -0.54688,2.04687 0,0.91667 0.24739,1.62501 0.74219,2.125 0.49479,0.50001 1.20051,0.75001 2.11719,0.75 z"
         id="path4686" />
      <path
         d="m 164.60113,386.95752 c -1e-5,2.25001 0.35416,3.91667 1.0625,5 0.70832,1.08334 1.77603,1.625 3.20312,1.625 0.99999,0 1.83593,-0.27083 2.50782,-0.8125 0.67186,-0.54166 1.08592,-1.375 1.24218,-2.5 l 2.84375,0.1875 c -0.21876,1.625 -0.91147,2.92188 -2.07812,3.89062 -1.16668,0.96875 -2.64585,1.45313 -4.4375,1.45313 -2.36459,0 -4.16928,-0.7474 -5.41406,-2.24219 -1.2448,-1.49479 -1.86719,-3.67447 -1.86719,-6.53906 0,-2.84374 0.625,-5.01301 1.875,-6.50781 1.24999,-1.49478 3.04166,-2.24217 5.375,-2.24219 1.72915,2e-5 3.16405,0.44793 4.30469,1.34375 1.14061,0.89585 1.85675,2.13022 2.14843,3.70312 l -2.89062,0.21875 c -0.14585,-0.93748 -0.51564,-1.68227 -1.10938,-2.23437 -0.59376,-0.55207 -1.43751,-0.82811 -2.53125,-0.82813 -1.48959,2e-5 -2.56771,0.49481 -3.23437,1.48438 -0.66667,0.9896 -1.00001,2.65626 -1,5 z"
         id="path4688" />
      <path
         d="m 189.05425,395.48877 -5.71875,-7.71875 -2.0625,1.70312 0,6.01563 -2.8125,0 0,-23.1875 2.8125,0 0,14.48437 7.42188,-8.20312 3.29687,0 -6.85937,7.26562 7.21875,9.64063 z"
         id="path4690" />
    </g>
    <g
       id="text3974"
       style="font-size:32px;font-style:normal;font-variant:normal;font-weight:normal;font-stretch:normal;text-align:start;line-height:125%;letter-spacing:0px;word-spacing:0px;writing-mode:lr-tb;text-anchor:start;fill:#0000ff;fill-opacity:1;stroke:none;font-family:Liberation Sans;-inkscape-font-specification:Liberation Sans">
      <path
         d="m 321.1344,833.40326 c -2e-5,2.27084 -0.44273,4.25782 -1.32813,5.96094 -0.88543,1.70313 -2.14064,3.00781 -3.76562,3.91406 -1.62502,0.90625 -3.50001,1.35937 -5.625,1.35937 l -8.23438,0 0,-22.01562 7.28125,0 c 3.72916,2e-5 6.60676,0.93492 8.63282,2.80469 2.02602,1.86981 3.03904,4.52866 3.03906,7.97656 z m -3,0 c -2e-5,-2.72915 -0.74741,-4.80988 -2.24219,-6.24219 -1.4948,-1.43227 -3.65886,-2.14842 -6.49219,-2.14844 l -4.23437,0 0,17.23438 4.90625,0 c 1.61457,0 3.03384,-0.35416 4.25781,-1.0625 1.22394,-0.70833 2.16405,-1.72916 2.82031,-3.0625 0.65624,-1.33333 0.98436,-2.90624 0.98438,-4.71875 z"
         id="path4693" />
      <path
         d="m 339.1344,836.16888 c -2e-5,2.95834 -0.65106,5.16147 -1.95313,6.60938 -1.30209,1.44792 -3.19272,2.17187 -5.67187,2.17187 -2.46876,0 -4.33334,-0.7526 -5.59375,-2.25781 -1.26042,-1.5052 -1.89063,-3.67968 -1.89063,-6.52344 0,-5.83331 2.52604,-8.74998 7.57813,-8.75 2.58332,2e-5 4.48436,0.71096 5.70312,2.13282 1.21874,1.42189 1.82811,3.62761 1.82813,6.61718 z m -2.95313,0 c -10e-6,-2.33332 -0.34636,-4.02863 -1.03906,-5.08593 -0.69272,-1.05728 -1.85678,-1.58593 -3.49219,-1.58594 -1.64584,10e-6 -2.83594,0.53908 -3.57031,1.61719 -0.73438,1.07813 -1.10156,2.76303 -1.10156,5.05468 0,2.22918 0.36197,3.90365 1.08594,5.02344 0.72395,1.1198 1.86197,1.67969 3.41406,1.67969 1.68749,0 2.89322,-0.54167 3.61719,-1.625 0.72394,-1.08333 1.08592,-2.77604 1.08593,-5.07813 z"
         id="path4695" />
      <path
         d="m 358.83752,844.63763 -3.26562,0 -2.95313,-11.95312 -0.5625,-2.64063 c -0.0938,0.46877 -0.23959,1.14325 -0.4375,2.02344 -0.19792,0.88022 -1.26042,5.07032 -3.1875,12.57031 l -3.25,0 -4.73437,-16.90625 2.78125,0 2.85937,11.48438 c 0.0729,0.25 0.29687,1.28125 0.67188,3.09375 l 0.26562,-1.15625 3.53125,-13.42188 3.01563,0 2.95312,11.60938 0.71875,2.96875 0.48438,-2.17188 3.20312,-12.40625 2.75,0 z"
         id="path4697" />
      <path
         d="m 376.5094,844.63763 0,-10.71875 c -1e-5,-1.11457 -0.10939,-1.97915 -0.32813,-2.59375 -0.21876,-0.61457 -0.56772,-1.05727 -1.04687,-1.32812 -0.47918,-0.27082 -1.1823,-0.40624 -2.10938,-0.40625 -1.35417,10e-6 -2.42188,0.46356 -3.20312,1.39062 -0.78126,0.9271 -1.17188,2.21356 -1.17188,3.85938 l 0,9.79687 -2.8125,0 0,-13.29687 c 0,-1.96874 -0.0312,-3.17186 -0.0937,-3.60938 l 2.65625,0 c 0.0104,0.0521 0.0208,0.19273 0.0312,0.42188 0.0104,0.22918 0.0234,0.4922 0.0391,0.78906 0.0156,0.29689 0.0338,0.85679 0.0547,1.67969 l 0.0469,0 c 0.64583,-1.16665 1.39322,-1.99217 2.24219,-2.47656 0.84895,-0.48436 1.90363,-0.72655 3.16406,-0.72657 1.85415,2e-5 3.21092,0.46096 4.07031,1.38282 0.85936,0.92189 1.28905,2.44532 1.28906,4.57031 l 0,11.26562 z"
         id="path4699" />
    </g>
    <g
       id="text3978"
       style="font-size:32px;font-style:normal;font-variant:normal;font-weight:normal;font-stretch:normal;text-align:start;line-height:125%;letter-spacing:0px;word-spacing:0px;writing-mode:lr-tb;text-anchor:start;fill:#0000ff;fill-opacity:1;stroke:none;font-family:Liberation Sans;-inkscape-font-specification:Liberation Sans">
      <path
         d="m 331.18118,177.06604 c -1.80209,0 -3.37501,-0.32812 -4.71875,-0.98437 -1.34375,-0.65625 -2.38542,-1.60938 -3.125,-2.85938 -0.73958,-1.25 -1.10937,-2.73958 -1.10937,-4.46875 l 0,-14.01562 2.98437,0 0,13.76562 c 0,2.01042 0.51041,3.53646 1.53125,4.57813 1.02083,1.04166 2.49479,1.5625 4.42188,1.5625 1.97915,0 3.51821,-0.53906 4.61719,-1.61719 1.09894,-1.07812 1.64842,-2.65364 1.64843,-4.72656 l 0,-13.5625 2.96875,0 0,13.73437 c -2e-5,1.78126 -0.37762,3.31771 -1.13281,4.60938 -0.75523,1.29166 -1.82293,2.27864 -3.20312,2.96093 -1.38023,0.68229 -3.00783,1.02344 -4.88282,1.02344 z"
         id="path4702" />
      <path
         d="m 359.33743,168.22229 c -10e-6,5.89584 -2.07293,8.84375 -6.21875,8.84375 -2.60417,0 -4.35417,-0.97917 -5.25,-2.9375 l -0.0781,0 c 0.0417,0.0833 0.0625,0.96875 0.0625,2.65625 l 0,6.60938 -2.8125,0 0,-20.09375 c 0,-1.73957 -0.0312,-2.89061 -0.0937,-3.45313 l 2.71875,0 c 0.0104,0.0417 0.026,0.19012 0.0469,0.44531 0.0208,0.25523 0.0443,0.64846 0.0703,1.17969 0.026,0.53126 0.039,0.89585 0.0391,1.09375 l 0.0625,0 c 0.49999,-1.04165 1.16145,-1.80467 1.98437,-2.28906 0.82291,-0.48436 1.90624,-0.72655 3.25,-0.72656 2.08332,1e-5 3.64061,0.69793 4.67188,2.09375 1.03123,1.39584 1.54686,3.58855 1.54687,6.57812 z m -2.95312,0.0625 c -2e-5,-2.35416 -0.31772,-4.03645 -0.95313,-5.04687 -0.63543,-1.01041 -1.64584,-1.51561 -3.03125,-1.51563 -1.11459,2e-5 -1.98698,0.23439 -2.61718,0.70313 -0.63022,0.46876 -1.10939,1.20053 -1.4375,2.19531 -0.32813,0.9948 -0.4922,2.28907 -0.49219,3.88281 -1e-5,2.21876 0.35416,3.85417 1.0625,4.90625 0.70832,1.05209 1.85936,1.57813 3.45312,1.57813 1.39583,0 2.41405,-0.51302 3.05469,-1.53907 0.64061,-1.02603 0.96092,-2.74739 0.96094,-5.16406 z"
         id="path4704" />
    </g>
    <g
       transform="matrix(0.90286709,-0.42991979,0.42991979,0.90286709,0,0)"
       id="text3982"
       style="font-size:32px;font-style:normal;font-variant:normal;font-weight:normal;font-stretch:normal;text-align:start;line-height:125%;letter-spacing:0px;word-spacing:0px;writing-mode:lr-tb;text-anchor:start;fill:#e1ce00;fill-opacity:1;stroke:none;font-family:Liberation Sans;-inkscape-font-specification:Liberation Sans">
      <path
         d="m -217.3877,617.75592 -5.71875,-9.14062 -6.85937,0 0,9.14062 -2.98438,0 0,-22.01562 10.35938,0 c 2.47915,2e-5 4.39321,0.5547 5.74219,1.66406 1.34894,1.10939 2.02341,2.65366 2.02343,4.63281 -2e-5,1.63543 -0.47658,3.01043 -1.42968,4.125 -0.95315,1.11459 -2.26825,1.81772 -3.94532,2.10938 l 6.25,9.48437 z m -0.4375,-15.6875 c -1e-5,-1.28123 -0.43491,-2.25779 -1.30468,-2.92969 -0.86981,-0.67185 -2.12241,-1.00779 -3.75782,-1.00781 l -7.07812,0 0,8.125 7.20312,0 c 1.57291,1e-5 2.78905,-0.36718 3.64844,-1.10156 0.85936,-0.73436 1.28905,-1.76301 1.28906,-3.08594 z"
         id="path4707"
         style="color:#000000;fill:#e1ce00;fill-rule:nonzero;stroke-width:8.99974632;marker:none;visibility:visible;display:inline;overflow:visible;enable-background:accumulate" />
      <path
         d="m -210.30957,597.25592 0,-2.6875 2.8125,0 0,2.6875 z m 0,20.5 0,-16.90625 2.8125,0 0,16.90625 z"
         id="path4709"
         style="color:#000000;fill:#e1ce00;fill-rule:nonzero;stroke-width:8.99974632;marker:none;visibility:visible;display:inline;overflow:visible;enable-background:accumulate" />
      <path
         d="m -196.7627,624.39655 c -1.84375,-1e-5 -3.3125,-0.36199 -4.40625,-1.08594 -1.09375,-0.72397 -1.79687,-1.75261 -2.10937,-3.08594 l 2.82812,-0.40625 c 0.1875,0.78125 0.60156,1.38281 1.24219,1.80469 0.64062,0.42187 1.48177,0.63281 2.52344,0.63281 2.80207,0 4.20311,-1.64063 4.20312,-4.92187 l 0,-2.71875 -0.0312,0 c -0.53126,1.08333 -1.26042,1.89843 -2.1875,2.44531 -0.92709,0.54687 -2.01042,0.82031 -3.25,0.82031 -2.07292,0 -3.59635,-0.6875 -4.57031,-2.0625 -0.97396,-1.375 -1.46094,-3.53645 -1.46094,-6.48437 0,-2.98958 0.52344,-5.1953 1.57032,-6.61719 1.04687,-1.42186 2.63801,-2.1328 4.77343,-2.13281 1.19791,10e-6 2.23697,0.27345 3.11719,0.82031 0.8802,0.54689 1.55989,1.32553 2.03906,2.33594 l 0.0312,0 c -1e-5,-0.31249 0.0208,-0.85416 0.0625,-1.625 0.0417,-0.77082 0.0833,-1.1927 0.125,-1.26563 l 2.67188,0 c -0.0625,0.56252 -0.0938,1.72918 -0.0937,3.5 l 0,12.92188 c -2e-5,4.74999 -2.35939,7.12499 -7.07813,7.125 z m 4.28125,-15.09375 c -1e-5,-1.37499 -0.18751,-2.55989 -0.5625,-3.55469 -0.37501,-0.99478 -0.90365,-1.7552 -1.58593,-2.28125 -0.6823,-0.52603 -1.45574,-0.78905 -2.32032,-0.78906 -1.4375,10e-6 -2.48438,0.52084 -3.14062,1.5625 -0.65625,1.04167 -0.98438,2.72917 -0.98438,5.0625 0,2.3125 0.30729,3.97396 0.92188,4.98437 0.61458,1.01042 1.66666,1.51563 3.15625,1.51563 0.88541,0 1.67186,-0.26042 2.35937,-0.78125 0.68749,-0.52083 1.21874,-1.26823 1.59375,-2.24219 0.37499,-0.97395 0.56249,-2.13281 0.5625,-3.47656 z"
         id="path4711"
         style="color:#000000;fill:#e1ce00;fill-rule:nonzero;stroke-width:8.99974632;marker:none;visibility:visible;display:inline;overflow:visible;enable-background:accumulate" />
      <path
         d="m -182.55957,603.7403 c 0.60416,-1.10416 1.33072,-1.91405 2.17969,-2.42969 0.84895,-0.51561 1.92447,-0.77342 3.22656,-0.77344 1.83332,2e-5 3.18488,0.45575 4.05469,1.36719 0.86977,0.91147 1.30467,2.44012 1.30468,4.58594 l 0,11.26562 -2.82812,0 0,-10.71875 c -1e-5,-1.18749 -0.10939,-2.0703 -0.32813,-2.64844 -0.21876,-0.57811 -0.57813,-1.00259 -1.07812,-1.27343 -0.50001,-0.27082 -1.19272,-0.40624 -2.07813,-0.40625 -1.32292,10e-6 -2.38281,0.45834 -3.17968,1.375 -0.79688,0.91667 -1.19532,2.15105 -1.19532,3.70312 l 0,9.96875 -2.8125,0 0,-23.1875 2.8125,0 0,6.03125 c 0,0.63543 -0.0182,1.29168 -0.0547,1.96875 -0.0365,0.6771 -0.0599,1.06772 -0.0703,1.17188 z"
         id="path4713"
         style="color:#000000;fill:#e1ce00;fill-rule:nonzero;stroke-width:8.99974632;marker:none;visibility:visible;display:inline;overflow:visible;enable-background:accumulate" />
      <path
         d="m -161.04395,617.63092 c -0.92709,0.25 -1.875,0.375 -2.84375,0.375 -2.25,0 -3.375,-1.27604 -3.375,-3.82812 l 0,-11.28125 -1.95312,0 0,-2.04688 2.0625,0 0.82812,-3.78125 1.875,0 0,3.78125 3.125,0 0,2.04688 -3.125,0 0,10.67187 c 0,0.8125 0.13281,1.38282 0.39844,1.71094 0.26562,0.32813 0.72656,0.49219 1.38281,0.49219 0.375,0 0.91666,-0.0729 1.625,-0.21875 z"
         id="path4715"
         style="color:#000000;fill:#e1ce00;fill-rule:nonzero;stroke-width:8.99974632;marker:none;visibility:visible;display:inline;overflow:visible;enable-background:accumulate" />
    </g>
    <g
       transform="matrix(0.82880539,-0.55953698,0.55953698,0.82880539,0,0)"
       id="text4013"
       style="font-size:32px;font-style:normal;font-variant:normal;font-weight:normal;font-stretch:normal;text-align:start;line-height:125%;letter-spacing:0px;word-spacing:0px;writing-mode:lr-tb;text-anchor:start;fill:#008080;fill-opacity:1;stroke:none;font-family:Liberation Sans;-inkscape-font-specification:Liberation Sans">
      <path
         d="m -35.289467,887.07281 c -2e-5,2.08335 -0.679706,3.7396 -2.039062,4.96875 -1.359392,1.22918 -3.205744,1.84376 -5.539063,1.84375 l -6.46875,0 0,8.57813 -2.984375,0 0,-22.01563 9.265625,0 c 2.468736,3e-5 4.380192,0.57815 5.734375,1.73438 1.354148,1.15627 2.03123,2.78648 2.03125,4.89062 z m -3,0.0312 c -1.7e-5,-2.84373 -1.708348,-4.2656 -5.125,-4.26562 l -5.921875,0 0,8.6875 6.046875,0 c 3.333318,10e-6 4.999983,-1.47395 5,-4.42188 z"
         id="path4718" />
      <path
         d="m -31.430092,881.96344 0,-2.6875 2.8125,0 0,2.6875 z m 0,20.5 0,-16.90625 2.8125,0 0,16.90625 z"
         id="path4720" />
      <path
         d="m -17.789467,902.33844 c -0.927091,0.25 -1.875007,0.375 -2.84375,0.375 -2.250003,0 -3.375002,-1.27604 -3.375,-3.82813 l 0,-11.28125 -1.953125,0 0,-2.04687 2.0625,0 0.828125,-3.78125 1.875,0 0,3.78125 3.125,0 0,2.04687 -3.125,0 0,10.67188 c -5e-6,0.8125 0.132807,1.38282 0.398438,1.71094 0.265619,0.32812 0.726556,0.49219 1.382812,0.49218 0.374993,10e-6 0.916659,-0.0729 1.625,-0.21875 z"
         id="path4722" />
      <path
         d="m -13.273842,893.93219 c -4e-6,2.25001 0.354162,3.91667 1.0625,5 0.708327,1.08334 1.776035,1.625 3.2031251,1.625 0.9999905,0 1.8359271,-0.27083 2.5078125,-0.8125 0.6718633,-0.54166 1.0859254,-1.375 1.2421875,-2.5 l 2.84375,0.1875 c -0.2187649,1.625 -0.9114725,2.92188 -2.078125,3.89062 -1.1666785,0.96876 -2.6458437,1.45313 -4.4375,1.45313 -2.3645891,0 -4.1692751,-0.7474 -5.4140621,-2.24219 -1.244794,-1.49479 -1.867189,-3.67447 -1.867188,-6.53906 -1e-6,-2.84374 0.624998,-5.01301 1.875,-6.50781 1.249996,-1.49478 3.041661,-2.24217 5.3750001,-2.24219 1.7291564,2e-5 3.1640508,0.44793 4.3046875,1.34375 1.140611,0.89585 1.8567561,2.13022 2.1484375,3.70312 l -2.890625,0.21875 c -0.1458453,-0.93748 -0.5156366,-1.68227 -1.109375,-2.23437 -0.5937604,-0.55207 -1.4375096,-0.82811 -2.53125,-0.82813 -1.4895901,2e-5 -2.5677141,0.49481 -3.2343751,1.48438 -0.666671,0.9896 -1.000004,2.65626 -1,5 z"
         id="path4724" />
      <path
         d="m 3.3824081,888.44781 c 0.6041612,-1.10415 1.3307229,-1.91404 2.1796875,-2.42968 0.8489504,-0.51561 1.9244702,-0.77342 3.2265625,-0.77344 1.8333209,2e-5 3.1848819,0.45575 4.0546879,1.36719 0.869776,0.91147 1.304671,2.44012 1.304687,4.58593 l 0,11.26563 -2.828125,0 0,-10.71875 c -1.3e-5,-1.18749 -0.109388,-2.0703 -0.328125,-2.64844 -0.218762,-0.57811 -0.578137,-1.00259 -1.0781249,-1.27344 -0.5000109,-0.27081 -1.1927186,-0.40623 -2.078125,-0.40625 -1.3229247,2e-5 -2.3828195,0.45835 -3.1796875,1.375 -0.7968804,0.91668 -1.1953175,2.15106 -1.1953125,3.70313 l 0,9.96875 -2.81249996,0 0,-23.1875 2.81249996,0 0,6.03125 c -5e-6,0.63543 -0.018234,1.29168 -0.054687,1.96875 -0.036463,0.6771 -0.059901,1.06772 -0.070312,1.17187 z"
         id="path4726" />
    </g>
    <g
       transform="matrix(0.90286709,-0.42991979,0.42991979,0.90286709,0,0)"
       id="text3982-9"
       style="font-size:32px;font-style:normal;font-variant:normal;font-weight:normal;font-stretch:normal;text-align:start;line-height:125%;letter-spacing:0px;word-spacing:0px;writing-mode:lr-tb;text-anchor:start;fill:#e1ce00;fill-opacity:1;stroke:none;display:inline;font-family:Liberation Sans;-inkscape-font-specification:Liberation Sans">
      <path
         d="m 342.93036,616.7865 0,-22.01563 2.98437,0 0,19.57813 11.125,0 0,2.4375 z"
         id="path4729"
         style="color:#000000;fill:#e1ce00;fill-rule:nonzero;stroke-width:8.99974632;marker:none;visibility:visible;display:inline;overflow:visible;enable-background:accumulate" />
      <path
         d="m 362.43036,608.92712 c -1e-5,1.93751 0.40104,3.4323 1.20312,4.48438 0.80208,1.05208 1.97395,1.57813 3.51563,1.57812 1.21874,1e-5 2.1953,-0.24479 2.92969,-0.73437 0.73436,-0.48958 1.23175,-1.10937 1.49218,-1.85938 l 2.46875,0.70313 c -1.01043,2.66667 -3.3073,4 -6.89062,4 -2.50001,0 -4.40365,-0.74479 -5.71094,-2.23438 -1.30729,-1.48958 -1.96094,-3.70312 -1.96094,-6.64062 0,-2.79166 0.65365,-4.93228 1.96094,-6.42188 1.30729,-1.48956 3.17447,-2.23435 5.60156,-2.23437 4.96874,2e-5 7.45311,2.9948 7.45313,8.98437 l 0,0.375 z m 9.15625,-2.15625 c -0.15626,-1.78123 -0.60939,-3.08071 -1.35938,-3.89843 -0.75001,-0.8177 -1.82813,-1.22655 -3.23437,-1.22657 -1.36459,2e-5 -2.44532,0.45575 -3.24219,1.36719 -0.79688,0.91147 -1.22657,2.16408 -1.28906,3.75781 z"
         id="path4731"
         style="color:#000000;fill:#e1ce00;fill-rule:nonzero;stroke-width:8.99974632;marker:none;visibility:visible;display:inline;overflow:visible;enable-background:accumulate" />
      <path
         d="m 381.57098,601.92712 0,14.85938 -2.8125,0 0,-14.85938 -2.375,0 0,-2.04687 2.375,0 0,-1.90625 c 0,-1.54165 0.33854,-2.65102 1.01563,-3.32813 0.67708,-0.67706 1.71353,-1.0156 3.10937,-1.01562 0.78125,2e-5 1.4427,0.0625 1.98438,0.1875 l 0,2.14062 c -0.46876,-0.0833 -0.88543,-0.12498 -1.25,-0.125 -0.71876,2e-5 -1.23959,0.18232 -1.5625,0.54688 -0.32292,0.3646 -0.48438,1.02606 -0.48438,1.98437 l 0,1.51563 3.29688,0 0,2.04687 z"
         id="path4733"
         style="color:#000000;fill:#e1ce00;fill-rule:nonzero;stroke-width:8.99974632;marker:none;visibility:visible;display:inline;overflow:visible;enable-background:accumulate" />
      <path
         d="m 393.46161,616.6615 c -0.92709,0.25 -1.87501,0.375 -2.84375,0.375 -2.25,0 -3.375,-1.27604 -3.375,-3.82813 l 0,-11.28125 -1.95313,0 0,-2.04687 2.0625,0 0.82813,-3.78125 1.875,0 0,3.78125 3.125,0 0,2.04687 -3.125,0 0,10.67188 c -1e-5,0.8125 0.13281,1.38281 0.39844,1.71094 0.26562,0.32812 0.72655,0.49219 1.38281,0.49218 0.37499,1e-5 0.91666,-0.0729 1.625,-0.21875 z"
         id="path4735"
         style="color:#000000;fill:#e1ce00;fill-rule:nonzero;stroke-width:8.99974632;marker:none;visibility:visible;display:inline;overflow:visible;enable-background:accumulate" />
    </g>
  </g>
</svg>
